# xmcd
#
# Track frame offsets: 
#        180
#        13956
#        27221
#        38546
#        55390
#        69932
#        85076
#        96904
#        107722
#        121347
#        133789
#        154465
#        167165
#        181284
#        192723
#        217377
#        230946
#        244675
#        258334
#        270578
#
# Disc length: 3787 seconds
#
# Revision: 2
# Processed by: cddbd v1.5.2PL0 Copyright (c) Steve Scherf et al.
# Submitted via: ExactAudioCopyFreeDBPlugin 1.0
#
DISCID=290ec914
DTITLE=Various Artist - Golden Greats Of Blues [CD4)
DYEAR=2006
DGENRE=Blues
TTITLE0=Joe Williams And Count Basie - All Right, Okay, You Win
TTITLE1=Ray Charles - Baby, Won't You Please Come Home?
TTITLE2=Dolores Gibson - Call Me, Call Me, Call Me
TTITLE3=Joe Williams And Count Basie - Every Day (I Fall In Love)
TTITLE4=Ray Charles - Funny But I Still Love You
TTITLE5=Muddy Waters - Honey Bee
TTITLE6=Bertice Reading - I Gotta Know
TTITLE7=John Lee Hooker - I Want To Shout
TTITLE8=Muddy Waters - I'm Ready
TTITLE9=Ray Charles - Jumpin' In The Morning
TTITLE10=John Lee Hooker - Looking Back Over My Day
TTITLE11=Gladys Hill - Please Don't Touch My Bowl
TTITLE12=Muddy Waters - Rolling Stone
TTITLE13=Annie Laurie - Stop Talkin' And Walkin'
TTITLE14=Joe Williams And Count Basie - The Comeback
TTITLE15=B.B. King - Three O'Clock Blues
TTITLE16=Bessie Smith - Sobbin'n Hearted Blues
TTITLE17=Big Bill Broonzy - Come Home Early
TTITLE18=Blind Boy Fuller And Sonny Terry - New Love Blues
TTITLE19=Brownie McGhee - I Don't Believe In Love
EXTD=
EXTT0=
EXTT1=
EXTT2=
EXTT3=
EXTT4=
EXTT5=
EXTT6=
EXTT7=
EXTT8=
EXTT9=
EXTT10=
EXTT11=
EXTT12=
EXTT13=
EXTT14=
EXTT15=
EXTT16=
EXTT17=
EXTT18=
EXTT19=
PLAYORDER=
